<?xml version="1.0" standalone="no"?>
<!DOCTYPE svg PUBLIC "-//W3C//DTD SVG 20010904//EN"
 "http://www.w3.org/TR/2001/REC-SVG-20010904/DTD/svg10.dtd">
<svg version="1.0" xmlns="http://www.w3.org/2000/svg"
 width="1462.000000pt" height="1462.000000pt" viewBox="0 0 1462.000000 1462.000000"
 preserveAspectRatio="xMidYMid meet">
<metadata>
Created by potrace 1.14, written by Peter Selinger 2001-2017
</metadata>
<g transform="translate(0.000000,1462.000000) scale(0.100000,-0.100000)"
fill="#000000" stroke="none">
<path d="M531 9309 c-10 -11 -21 -31 -24 -45 -11 -60 15 -190 60 -291 l23 -53
-23 -4 c-12 -3 -55 -7 -96 -10 -170 -11 -337 -149 -414 -343 -47 -120 -64
-313 -44 -508 12 -119 85 -402 134 -525 4 -8 7 -17 7 -20 1 -6 24 -62 42 -105
107 -255 182 -410 313 -643 50 -90 91 -170 91 -177 0 -22 58 -83 94 -99 71
-33 112 -35 580 -33 467 2 471 3 522 25 46 21 69 24 215 26 167 3 222 12 293
48 55 28 114 92 125 136 5 21 9 201 8 412 -2 350 -3 378 -21 405 -38 59 -89
96 -176 125 -53 18 -91 23 -200 24 -76 2 -135 6 -135 12 1 26 18 74 26 74 5 0
9 9 9 19 0 12 9 21 25 25 25 6 25 8 25 108 0 82 -3 103 -16 113 -14 10 -15 19
-6 61 30 134 42 325 28 464 -20 195 -86 315 -223 406 -73 49 -158 83 -268 109
-124 30 -723 25 -760 -5 -7 -6 -11 18 -10 74 0 75 -2 86 -29 120 -36 48 -102
96 -132 96 -13 0 -32 -9 -43 -21z m122 -78 c38 -43 47 -71 41 -128 -6 -68 -21
-105 -49 -126 l-25 -18 -20 46 c-43 99 -63 248 -39 272 16 16 54 -4 92 -46z
m508 -230 l36 -1 0 -634 c0 -468 3 -639 11 -649 17 -20 117 -20 134 0 9 12 12
154 10 644 -2 507 0 629 10 629 41 -1 184 -46 253 -80 99 -49 172 -111 210
-181 l30 -54 3 -533 3 -533 62 2 62 3 3 -324 c1 -178 6 -328 11 -333 12 -12
131 -16 159 -6 l22 9 0 320 c0 176 4 320 9 320 20 0 92 -30 128 -54 22 -15 48
-43 59 -64 19 -35 20 -56 19 -407 -1 -420 1 -409 -82 -464 -76 -51 -138 -64
-310 -65 -84 -1 -154 0 -154 3 -1 3 -3 137 -4 296 -1 160 -3 293 -4 297 0 4
-7 5 -15 2 -12 -5 -15 -55 -15 -306 0 -166 -3 -303 -6 -306 -2 -3 -26 -12 -52
-21 -42 -14 -109 -16 -503 -15 -501 1 -521 3 -577 59 l-33 33 0 1146 c0 841 3
1146 11 1146 8 0 8 4 1 13 -22 26 54 88 111 92 71 5 232 17 234 19 1 1 52 0
164 -3z m104 -581 c0 -455 -3 -581 -12 -585 -10 -3 -13 116 -13 580 0 461 3
585 13 585 9 0 12 -123 12 -580z m45 -12 c0 -471 -2 -579 -13 -570 -10 8 -12
128 -11 584 1 315 2 574 3 576 1 2 5 0 11 -3 6 -4 10 -223 10 -587z m-880 392
c-211 -229 -171 -775 108 -1475 l56 -140 2 -135 3 -135 -31 60 c-83 161 -227
510 -270 655 -46 155 -58 205 -83 345 -23 126 -25 153 -26 280 -1 239 59 414
183 531 41 40 60 51 84 53 6 1 -6 -17 -26 -39z m-116 -7 c-76 -79 -136 -216
-158 -366 -17 -111 -13 -320 8 -423 2 -12 7 -39 10 -60 39 -242 163 -593 343
-964 65 -134 76 -164 80 -220 l4 -65 -37 60 c-40 64 -236 447 -271 530 -52
121 -93 227 -126 325 -54 165 -66 206 -87 314 -49 249 -47 420 5 581 32 98 79
176 142 237 39 38 108 88 121 88 2 0 -14 -17 -34 -37z m262 -12 l21 -1 0 -630
c0 -346 -1 -630 -3 -630 -4 0 -59 172 -88 275 -29 106 -62 251 -70 315 -3 25
-9 56 -12 70 -14 56 -13 344 2 400 34 130 78 211 111 205 10 -2 27 -4 39 -4z
m-180 -147 c-21 -73 -27 -131 -27 -251 0 -181 29 -362 95 -598 1 -5 8 -30 15
-55 7 -25 35 -112 63 -195 43 -126 71 -252 53 -234 -8 9 -85 218 -122 329 -54
167 -105 382 -118 495 -3 28 -8 66 -10 85 -6 44 -6 191 -1 247 6 60 15 99 38
171 23 74 35 78 14 6z m1527 -49 c22 -112 14 -386 -13 -484 -4 -14 -7 102 -7
259 0 157 -3 296 -7 310 -5 18 -4 21 3 10 5 -9 16 -51 24 -95z m7 -570 c0 -1
-7 -8 -15 -15 -13 -10 -15 -9 -15 8 0 15 5 20 15 16 8 -4 15 -7 15 -9z m36
-212 c-2 -3 -12 0 -22 5 -16 9 -20 54 -15 156 1 8 9 16 19 18 15 3 17 -7 20
-86 1 -49 1 -91 -2 -93z m-59 -25 c-3 -8 -6 -5 -6 6 -1 11 2 17 5 13 3 -3 4
-12 1 -19z m-599 -17 c-3 -14 -17 -17 -58 -12 -5 1 -10 7 -10 14 0 9 13 14 35
14 27 0 35 -4 33 -16z m757 -414 c1 -144 -3 -267 -8 -274 -4 -6 -7 -24 -5 -40
3 -24 8 -28 33 -28 29 0 30 2 29 40 -3 100 -5 369 -5 463 1 79 4 102 15 102
11 0 13 -54 13 -310 l0 -310 -53 0 -52 0 0 303 c0 278 6 343 27 322 3 -3 6
-124 6 -268z"/>
<path d="M1558 7294 c-150 -45 -339 -47 -549 -8 -46 9 -96 18 -111 21 -20 4
-30 0 -34 -11 -4 -9 -4 -19 -2 -21 7 -8 187 -43 258 -51 83 -10 204 -10 300
-1 67 6 98 13 205 45 19 5 30 15 30 27 0 26 -10 26 -97 -1z"/>
<path d="M6279 8946 c-2 -2 -31 -6 -65 -9 -88 -8 -112 -16 -120 -40 -9 -27 -9
-816 0 -844 7 -23 49 -44 84 -41 12 1 32 12 43 24 19 21 21 36 23 175 l1 153
50 -4 c28 -2 102 -4 165 -3 175 1 285 46 343 138 34 55 45 99 42 177 -6 139
-73 219 -221 261 -45 13 -334 24 -345 13z m303 -152 c77 -25 117 -91 105 -172
-7 -44 -36 -78 -87 -104 -40 -21 -59 -23 -175 -22 -71 1 -141 3 -155 6 l-25 5
-1 146 -1 146 51 6 c133 14 218 11 288 -11z"/>
<path d="M8238 8844 c-50 -26 -56 -106 -10 -140 29 -23 90 -17 117 11 68 67
-21 174 -107 129z"/>
<path d="M10004 8742 c-27 -17 -31 -57 -29 -297 1 -261 6 -299 48 -359 38 -54
174 -92 237 -66 31 13 45 55 31 94 -10 25 -30 36 -66 36 -34 0 -72 19 -89 45
-10 15 -15 52 -17 106 -3 146 -6 136 52 136 82 0 113 27 101 88 -6 33 -50 54
-105 50 -20 -2 -40 1 -43 6 -3 5 -7 39 -8 74 -3 50 -8 69 -22 80 -20 15 -72
19 -90 7z"/>
<path d="M7108 8575 c-99 -25 -158 -87 -181 -192 -19 -86 -16 -328 4 -348 26
-26 81 -30 108 -7 24 18 25 24 26 159 2 115 5 147 21 179 22 45 68 72 134 78
52 5 70 25 70 78 0 65 -62 84 -182 53z"/>
<path d="M7609 8576 c-132 -35 -205 -122 -216 -255 -11 -132 43 -233 155 -288
48 -24 71 -28 147 -30 75 -2 100 2 149 22 112 46 176 138 178 258 3 139 -71
248 -193 285 -75 23 -156 26 -220 8z m190 -143 c67 -51 88 -134 53 -214 -30
-70 -81 -95 -181 -91 -70 4 -138 108 -125 192 19 123 156 184 253 113z"/>
<path d="M8790 8587 c-3 -3 -17 -8 -30 -10 -88 -16 -167 -84 -196 -168 -24
-74 -23 -180 4 -239 52 -112 141 -159 301 -161 154 -1 254 48 243 120 -7 51
-39 60 -115 33 -99 -35 -207 -25 -261 25 -33 30 -29 38 10 22 16 -6 67 -13
114 -15 157 -6 244 49 256 162 11 97 -33 171 -124 210 -36 15 -192 31 -202 21z
m149 -142 c59 -30 45 -94 -25 -114 -52 -15 -214 7 -214 29 0 22 50 77 80 87
49 17 126 16 159 -2z"/>
<path d="M9500 8581 c-58 -14 -87 -28 -130 -67 -163 -147 -109 -432 93 -500
106 -36 280 -11 333 47 24 26 21 69 -6 91 -29 24 -51 23 -96 -4 -58 -34 -150
-31 -199 7 -65 49 -84 141 -45 219 28 57 63 79 131 84 43 3 68 -1 105 -18 60
-27 93 -28 111 -4 35 47 3 101 -77 129 -53 19 -171 27 -220 16z"/>
<path d="M8243 8569 c-12 -4 -24 -18 -28 -30 -4 -12 -7 -144 -7 -293 0 -149
-4 -288 -9 -308 -8 -32 -15 -38 -44 -44 -39 -7 -49 -17 -59 -55 -10 -44 25
-79 80 -79 78 0 139 41 169 115 5 11 9 163 11 338 2 285 0 319 -15 338 -18 23
-63 31 -98 18z"/>
<path d="M5515 8100 c-52 -20 -50 14 -50 -808 0 -577 3 -771 12 -793 16 -38
48 -49 139 -49 88 0 130 17 141 58 4 15 7 125 6 244 l0 216 70 4 c39 2 75 -1
82 -7 6 -5 50 -73 97 -150 46 -77 102 -168 124 -203 21 -35 46 -75 55 -90 30
-53 69 -69 167 -71 49 -1 101 1 115 4 30 8 52 45 43 78 -3 13 -78 134 -166
268 -88 134 -168 258 -179 276 l-20 32 155 217 c85 120 157 228 161 242 7 29
-5 53 -36 68 -35 18 -192 11 -227 -10 -22 -14 -221 -283 -283 -385 -9 -13
-132 -23 -149 -12 -5 4 -9 189 -9 412 0 432 -1 441 -49 459 -31 12 -171 12
-199 0z"/>
<path d="M11072 8100 c-48 -20 -49 -23 -47 -830 1 -590 4 -760 14 -778 18 -33
50 -42 147 -40 73 1 88 4 109 24 14 13 26 33 26 46 1 13 3 118 4 233 2 116 3
212 4 215 0 3 34 4 75 2 l75 -4 70 -116 c252 -417 235 -398 366 -401 104 -2
153 11 161 44 9 36 1 53 -126 248 -66 100 -146 223 -179 274 l-59 91 61 88
c34 48 83 117 109 153 158 223 167 241 128 276 -16 15 -39 19 -108 21 -137 3
-143 -2 -292 -217 -69 -100 -130 -187 -136 -193 -9 -9 -111 -14 -144 -7 -3 1
-5 182 -4 404 0 434 -1 448 -52 467 -32 12 -171 12 -202 0z"/>
<path d="M4647 7674 c-1 -1 -28 -5 -59 -8 -229 -27 -434 -188 -509 -402 -29
-82 -30 -87 -33 -194 -7 -192 47 -334 173 -460 127 -126 267 -181 466 -183
157 -1 286 38 411 124 61 41 71 78 40 145 -30 64 -58 94 -91 94 -14 0 -59 -18
-99 -40 -101 -56 -154 -70 -250 -66 -233 8 -386 207 -341 441 34 173 160 282
334 290 78 3 137 -12 216 -53 81 -43 124 -43 157 1 60 78 71 127 39 169 -29
36 -161 103 -246 125 -20 4 -205 20 -208 17z"/>
<path d="M7380 7664 c-106 -22 -205 -83 -265 -163 l-23 -32 0 62 c0 52 -3 65
-25 86 -21 22 -35 26 -94 28 -37 1 -81 -2 -96 -8 -60 -20 -58 18 -55 -830 l3
-776 22 -23 c20 -19 33 -22 123 -22 154 -1 145 -21 145 327 l0 283 50 -52 c83
-85 160 -115 293 -116 196 -1 356 89 456 256 63 104 89 208 89 356 1 120 -10
191 -43 281 -75 206 -227 331 -420 345 -36 3 -72 6 -80 8 -8 1 -44 -3 -80 -10z
m151 -280 c88 -44 144 -133 164 -259 38 -249 -91 -445 -294 -447 -59 0 -142
35 -184 77 -118 120 -141 350 -51 512 74 132 234 184 365 117z"/>
<path d="M3085 7660 c-86 -15 -248 -83 -275 -115 -19 -23 -16 -74 9 -121 48
-91 70 -97 185 -49 90 37 163 53 220 48 137 -11 206 -78 206 -199 l0 -34 -72
-1 c-159 -2 -239 -13 -357 -50 -199 -62 -297 -167 -308 -329 -16 -225 146
-383 394 -382 82 0 99 3 157 30 82 39 129 74 176 133 l36 46 1 -71 c0 -65 3
-72 29 -93 26 -21 37 -23 116 -20 49 2 89 5 91 8 37 46 37 42 37 430 0 214 -4
399 -10 430 -32 167 -148 289 -318 333 -56 15 -242 18 -317 6z m348 -705 c-11
-174 -140 -308 -285 -298 -79 5 -123 36 -152 105 -46 110 64 216 244 235 30 3
56 6 57 7 1 0 33 2 71 4 l69 2 -4 -55z"/>
<path d="M8610 7650 c-127 -34 -219 -76 -243 -110 -24 -34 -3 -109 48 -174 21
-28 79 -25 145 6 226 107 430 41 430 -138 l0 -44 -67 -1 c-275 -3 -481 -66
-586 -178 -105 -113 -117 -295 -28 -425 106 -154 344 -206 525 -115 57 28 135
95 155 133 20 36 28 33 28 -11 0 -94 2 -103 35 -123 24 -14 49 -19 98 -18 83
2 114 13 129 45 19 41 15 772 -4 847 -43 165 -153 273 -319 311 -90 21 -260
18 -346 -5z m383 -695 c-11 -161 -123 -291 -259 -300 -74 -4 -140 29 -169 85
-63 121 39 233 232 256 32 3 59 7 60 8 1 1 33 3 71 4 l69 3 -4 -56z"/>
<path d="M10066 7649 c-228 -59 -399 -234 -449 -460 -17 -77 -16 -220 2 -299
37 -160 166 -322 311 -392 105 -51 187 -70 305 -71 131 -1 210 16 322 70 112
53 165 101 158 142 -13 77 -66 151 -108 151 -11 0 -67 -24 -125 -52 -103 -52
-106 -53 -196 -53 -105 0 -153 12 -220 56 -120 80 -180 232 -151 383 32 171
164 285 335 290 79 3 135 -11 217 -53 89 -47 126 -42 171 23 46 65 53 118 21
152 -32 34 -170 102 -244 119 -85 19 -264 17 -349 -6z"/>
</g>
</svg>
